<svg xmlns="http://www.w3.org/2000/svg">
  <symbol id="fa6-check" stroke="currentColor" fill="currentColor" stroke-width="0" viewBox="0 0 448 512">
    <path
      d="M438.6 105.4c12.5 12.5 12.5 32.8 0 45.3l-256 256c-12.5 12.5-32.8 12.5-45.3 0l-128-128c-12.5-12.5-12.5-32.8 0-45.3s32.8-12.5 45.3 0L160 338.7 393.4 105.4c12.5-12.5 32.8-12.5 45.3 0z"
    ></path>
  </symbol>

  <symbol id="fa6-upload" stroke="currentColor" fill="currentColor" stroke-width="0" viewBox="0 0 512 512">
    <path
      d="M288 109.3V352c0 17.7-14.3 32-32 32s-32-14.3-32-32V109.3l-73.4 73.4c-12.5 12.5-32.8 12.5-45.3 0s-12.5-32.8 0-45.3l128-128c12.5-12.5 32.8-12.5 45.3 0l128 128c12.5 12.5 12.5 32.8 0 45.3s-32.8 12.5-45.3 0L288 109.3zM64 352H192c0 35.3 28.7 64 64 64s64-28.7 64-64H448c35.3 0 64 28.7 64 64v32c0 35.3-28.7 64-64 64H64c-35.3 0-64-28.7-64-64V416c0-35.3 28.7-64 64-64zM432 456a24 24 0 1 0 0-48 24 24 0 1 0 0 48z"
    ></path>
  </symbol>

  <symbol
    id="hi-menu"
    stroke="currentColor"
    fill="currentColor"
    stroke-width="0"
    viewBox="0 0 20 20"
    aria-hidden="true"
  >
    <path
      fill-rule="evenodd"
      d="M3 5a1 1 0 011-1h12a1 1 0 110 2H4a1 1 0 01-1-1zM3 10a1 1 0 011-1h12a1 1 0 110 2H4a1 1 0 01-1-1zM9 15a1 1 0 011-1h6a1 1 0 110 2h-6a1 1 0 01-1-1z"
      clip-rule="evenodd"
    ></path>
  </symbol>

  <symbol
    id="hi-cross"
    stroke="currentColor"
    fill="currentColor"
    stroke-width="0"
    viewBox="0 0 20 20"
    aria-hidden="true"
  >
    <path
      fill-rule="evenodd"
      d="M4.293 4.293a1 1 0 011.414 0L10 8.586l4.293-4.293a1 1 0 111.414 1.414L11.414 10l4.293 4.293a1 1 0 01-1.414 1.414L10 11.414l-4.293 4.293a1 1 0 01-1.414-1.414L8.586 10 4.293 5.707a1 1 0 010-1.414z"
      clip-rule="evenodd"
    ></path>
  </symbol>

  <symbol id="fa6-form" stroke="currentColor" fill="currentColor" stroke-width="0" viewBox="0 0 448 512">
    <path
      d="M448 75.2v361.7c0 24.3-19 43.2-43.2 43.2H43.2C19.3 480 0 461.4 0 436.8V75.2C0 51.1 18.8 32 43.2 32h361.7c24 0 43.1 18.8 43.1 43.2zm-37.3 361.6V75.2c0-3-2.6-5.8-5.8-5.8h-9.3L285.3 144 224 94.1 162.8 144 52.5 69.3h-9.3c-3.2 0-5.8 2.8-5.8 5.8v361.7c0 3 2.6 5.8 5.8 5.8h361.7c3.2.1 5.8-2.7 5.8-5.8zM150.2 186v37H76.7v-37h73.5zm0 74.4v37.3H76.7v-37.3h73.5zm11.1-147.3l54-43.7H96.8l64.5 43.7zm210 72.9v37h-196v-37h196zm0 74.4v37.3h-196v-37.3h196zm-84.6-147.3l64.5-43.7H232.8l53.9 43.7zM371.3 335v37.3h-99.4V335h99.4z"
    ></path>
  </symbol>

  <symbol
    id="tfi-accordion"
    stroke="currentColor"
    fill="currentColor"
    stroke-width="0"
    version="1.1"
    viewBox="0 0 17 17"
  >
    <g></g>
    <path
      d="M0 0v3h17v-3h-17zM16 2h-15v-1h15v1zM0 13h17v-9h-17v9zM1 5h15v7h-15v-7zM0 17h17v-3h-17v3zM1 15h15v1h-15v-1z"
    ></path>
  </symbol>

  <symbol id="wsc-windows" stroke="currentColor" fill="currentColor" stroke-width="0" viewBox="0 0 16 16">
    <path
      fill-rule="evenodd"
      clip-rule="evenodd"
      d="M6 1.5l.5-.5h8l.5.5v7l-.5.5H12V8h2V4H7v1H6V1.5zM7 2v1h7V2H7zM1.5 7l-.5.5v7l.5.5h8l.5-.5v-7L9.5 7h-8zM2 9V8h7v1H2zm0 1h7v4H2v-4z"
    ></path>
  </symbol>

  <symbol id="pi-tabs" stroke="currentColor" fill="currentColor" stroke-width="0" viewBox="0 0 256 256">
    <path
      d="M255.66,165.7h0v0a.24.24,0,0,0,0-.08L233.37,91.4A15.89,15.89,0,0,0,218.05,80H208a8,8,0,0,0,0,16h10.05l19.2,64H206L185.37,91.4A15.89,15.89,0,0,0,170.05,80H160a8,8,0,0,0,0,16h10.05l19.2,64H158L137.37,91.4A15.89,15.89,0,0,0,122.05,80H38A15.89,15.89,0,0,0,22.63,91.4L.37,165.6l0,.05v0s0,.05,0,.08A8.1,8.1,0,0,0,0,168a8,8,0,0,0,8,8H248a8,8,0,0,0,7.66-10.3ZM38,96h84.1l19.2,64H18.75Z"
    ></path>
  </symbol>

  <symbol id="hi-plus" stroke="currentColor" fill="none" stroke-width="2" viewBox="0 0 24 24" aria-hidden="true">
    <path stroke-linecap="round" stroke-linejoin="round" d="M12 6v6m0 0v6m0-6h6m-6 0H6"></path>
  </symbol>

  <symbol id="io-moon" stroke="currentColor" fill="currentColor" stroke-width="0" viewBox="0 0 512 512">
    <path
      fill="none"
      stroke-linecap="round"
      stroke-linejoin="round"
      stroke-width="32"
      d="M160 136c0-30.62 4.51-61.61 16-88C99.57 81.27 48 159.32 48 248c0 119.29 96.71 216 216 216 88.68 0 166.73-51.57 200-128-26.39 11.49-57.38 16-88 16-119.29 0-216-96.71-216-216z"
    ></path>
  </symbol>

  <symbol id="pi-cursor" stroke="currentColor" fill="currentColor" stroke-width="0" viewBox="0 0 256 256">
    <path
      d="M90,24V16a6,6,0,0,1,12,0v8a6,6,0,0,1-12,0ZM16,102h8a6,6,0,0,0,0-12H16a6,6,0,0,0,0,12ZM125.32,37.37a6,6,0,0,0,8.05-2.69l8-16a6,6,0,0,0-10.74-5.37l-8,16A6,6,0,0,0,125.32,37.37Zm-96,85.26-16,8a6,6,0,0,0,5.36,10.74l16-8a6,6,0,1,0-5.36-10.74ZM217.9,185.41a14,14,0,0,1,0,19.8L205.21,217.9a14,14,0,0,1-19.8,0L134.1,166.59a2,2,0,0,0-3.21.54l-17.75,46.24a2.44,2.44,0,0,0-.1.24A13.85,13.85,0,0,1,100.26,222c-.23,0-.45,0-.68,0A13.85,13.85,0,0,1,87,212.38L34.7,52.3A14,14,0,0,1,52.3,34.7L212.38,87A14,14,0,0,1,213.61,113l-.24.09-46.25,17.76a2,2,0,0,0-.53,3.21Zm-8.49,8.49L158.1,142.59h0a14,14,0,0,1,4.32-22.74l.24-.1L208.91,102a2,2,0,0,0-.26-3.61L48.58,46.11a2.33,2.33,0,0,0-.65-.11,2,2,0,0,0-1.82,2.58L98.38,208.65a1.84,1.84,0,0,0,1.77,1.35,1.81,1.81,0,0,0,1.84-1.09l17.76-46.25.1-.24a14,14,0,0,1,22.74-4.32l51.31,51.31a2,2,0,0,0,2.83,0l12.68-12.68A2,2,0,0,0,209.41,193.9Z"
    ></path>
  </symbol>
</svg>
